<svg xmlns="http://www.w3.org/2000/svg" viewBox="0 0 300 300">
  <g fill="#688b62">
    <path d="M150 296 C 146 250 150 210 162 176 C 158 210 156 250 158 296 Z"/>
    <path d="M160 200 C 188 168 232 160 268 168 C 240 200 196 210 162 200 C 176 196 196 188 224 184 C 200 182 178 188 160 200 Z"/>
    <path d="M150 168 C 120 138 110 96 118 60 C 150 92 162 134 152 168 C 150 138 142 104 122 80 C 138 110 148 140 150 168 Z"/>
    <path d="M150 150 C 178 118 222 110 258 118 C 230 150 186 160 152 150 C 168 146 190 140 218 136 C 192 134 170 140 150 150 Z"/>
    <path d="M146 132 C 116 102 106 60 114 24 C 146 56 158 98 148 132 C 146 102 138 68 118 44 C 134 74 144 104 146 132 Z"/>
    <path d="M140 240 C 110 214 100 176 108 142 C 138 170 150 208 142 240 C 140 212 132 182 114 160 C 128 186 138 214 140 240 Z"/>
  </g>
</svg>
