<svg xmlns="http://www.w3.org/2000/svg" viewBox="0 0 200 200">
  <g fill="none" stroke="#8d9430" stroke-width="1.3" stroke-linecap="round" opacity="0.8">
    <path d="M16 190 C 64 168 104 134 128 92"/>
    <path d="M128 92 C 142 66 160 46 186 32"/>
    <path d="M70 158 C 86 150 104 150 118 158"/>
    <path d="M96 124 C 80 116 62 118 50 128"/>
    <path d="M132 84 C 150 70 172 66 188 70"/>
  </g>
  <g fill="#b9c28d" opacity="0.5">
    <path d="M118 158 C 134 150 152 154 160 164 C 146 172 128 170 118 158 Z"/>
    <path d="M50 128 C 38 120 34 104 38 92 C 52 100 56 116 50 128 Z"/>
    <path d="M104 110 C 96 96 96 80 104 70 C 114 80 112 98 104 110 Z"/>
  </g>
  <g>
    <g transform="translate(186,32)">
      <g fill="#e3dd8e"><circle cx="0" cy="-9" r="6"/><circle cx="8.6" cy="-2.8" r="6"/><circle cx="5.3" cy="7.3" r="6"/><circle cx="-5.3" cy="7.3" r="6"/><circle cx="-8.6" cy="-2.8" r="6"/></g>
      <circle r="4" fill="#e8a33d"/>
    </g>
    <g transform="translate(188,70) scale(0.85)">
      <g fill="#e3dd8e"><circle cx="0" cy="-9" r="6"/><circle cx="8.6" cy="-2.8" r="6"/><circle cx="5.3" cy="7.3" r="6"/><circle cx="-5.3" cy="7.3" r="6"/><circle cx="-8.6" cy="-2.8" r="6"/></g>
      <circle r="4" fill="#e8a33d"/>
    </g>
    <g transform="translate(40,90) scale(0.7)">
      <g fill="#e3dd8e"><circle cx="0" cy="-9" r="6"/><circle cx="8.6" cy="-2.8" r="6"/><circle cx="5.3" cy="7.3" r="6"/><circle cx="-5.3" cy="7.3" r="6"/><circle cx="-8.6" cy="-2.8" r="6"/></g>
      <circle r="4" fill="#e8a33d"/>
    </g>
  </g>
</svg>
